<svg xmlns="http://www.w3.org/2000/svg" width="1050" height="520" viewBox="0 0 1050 520" role="img" aria-label="Nyzeep Chromatic Terminal Profile">
  <defs>
    <!-- Deep Obsidian Slate Background -->
    <linearGradient id="obsidian-bg" x1="0%" y1="0%" x2="100%" y2="100%">
      <stop offset="0%" stop-color="#0a0d14"/>
      <stop offset="50%" stop-color="#0f1422"/>
      <stop offset="100%" stop-color="#090c13"/>
    </linearGradient>

    <!-- Subtle Border Glow -->
    <linearGradient id="border-glow" x1="0%" y1="0%" x2="100%" y2="100%">
      <stop offset="0%" stop-color="#00f0ff" stop-opacity="0.6"/>
      <stop offset="35%" stop-color="#7000ff" stop-opacity="0.4"/>
      <stop offset="70%" stop-color="#ff007f" stop-opacity="0.5"/>
      <stop offset="100%" stop-color="#00f0ff" stop-opacity="0.6"/>
    </linearGradient>

    <!-- Dynamic Flowing Chromatic Gradient (Perfect 2x Period for Seamless Indefinite Loop) -->
    <linearGradient id="chroma-flow" x1="0%" y1="0%" x2="200%" y2="0%">
      <stop offset="0%" stop-color="#00f0ff"/>
      <stop offset="8.3%" stop-color="#4361ee"/>
      <stop offset="16.6%" stop-color="#7000ff"/>
      <stop offset="25%" stop-color="#b5179e"/>
      <stop offset="33.3%" stop-color="#f72585"/>
      <stop offset="41.6%" stop-color="#ff6b6b"/>
      <stop offset="50%" stop-color="#ffb703"/>
      <stop offset="58.3%" stop-color="#00f0ff"/>
      <stop offset="66.6%" stop-color="#4361ee"/>
      <stop offset="75%" stop-color="#7000ff"/>
      <stop offset="83.3%" stop-color="#b5179e"/>
      <stop offset="91.6%" stop-color="#f72585"/>
      <stop offset="100%" stop-color="#00f0ff"/>
      
    </linearGradient>

    <!-- Spec Box Background -->
    <linearGradient id="spec-box-bg" x1="0%" y1="0%" x2="100%" y2="100%">
      <stop offset="0%" stop-color="#141a2b" stop-opacity="0.85"/>
      <stop offset="100%" stop-color="#0e121e" stop-opacity="0.85"/>
    </linearGradient>

    <!-- Luminous Chromatic Glow -->
    <filter id="chroma-glow" x="-20%" y="-20%" width="140%" height="140%">
      <feGaussianBlur stdDeviation="3.2" result="blur"/>
      <feMerge>
        <feMergeNode in="blur"/>
        <feMergeNode in="SourceGraphic"/>
      </feMerge>
    </filter>

    <!-- Subtle Ambient Dots Pattern -->
    <pattern id="dot-matrix" width="24" height="24" patternUnits="userSpaceOnUse">
      <circle cx="2" cy="2" r="0.8" fill="#565f89" fill-opacity="0.08"/>
    </pattern>
  </defs>

  <style>
    .mono {
      font-family: 'JetBrains Mono', 'Fira Code', 'Cascadia Code', 'SF Mono', Consolas, 'DejaVu Sans Mono', Menlo, monospace;
    }
    .hdr-title {
      fill: #8f9bb3;
      font-size: 12px;
    }
    .key {
      fill: #00f0ff;
      font-weight: 600;
      font-size: 13.5px;
    }
    .sep {
      fill: #3b4261;
      font-size: 13.5px;
    }
    .val {
      fill: #f0f6fc;
      font-size: 13.5px;
    }
    .val-accent {
      fill: #ffb703;
      font-weight: 600;
      font-size: 13.5px;
    }
    .val-purple {
      fill: #b5179e;
      font-weight: 600;
      font-size: 13.5px;
    }
  </style>

  <!-- Terminal Window Background -->
  <rect x="4" y="4" width="1042" height="512" rx="14" fill="url(#obsidian-bg)" stroke="url(#border-glow)" stroke-width="1.3"/>
  <rect x="4" y="4" width="1042" height="512" rx="14" fill="url(#dot-matrix)"/>

  <!-- Clean, Sparse Ambient Code Stream Background -->
  <g clip-path="url(#term-clip)">
    <clipPath id="term-clip">
      <rect x="5" y="42" width="1040" height="472" rx="0"/>
    </clipPath>
    <g opacity="0.20">
    <g transform="translate(0, -34)">
      <text font-family="'JetBrains Mono', monospace" font-size="11" fill="#7aa2f7" xml:space="preserve">
        <tspan x="45" y="0">F</tspan>
        <tspan x="45" y="20">0</tspan>
        <tspan x="45" y="40">{</tspan>
        <tspan x="45" y="60">9</tspan>
        <tspan x="45" y="80">9</tspan>
        <tspan x="45" y="100">X</tspan>
        <tspan x="45" y="120">F</tspan>
        <tspan x="45" y="140">#</tspan>
        <tspan x="45" y="160">A</tspan>
        <tspan x="45" y="180">+</tspan>
        <tspan x="45" y="200">1</tspan>
        <tspan x="45" y="220">0</tspan>
        <tspan x="45" y="240">A</tspan>
      </text>
    </g>
    <g transform="translate(0, -14)">
      <text font-family="'JetBrains Mono', monospace" font-size="11" fill="#7aa2f7" xml:space="preserve">
        <tspan x="132" y="0">7</tspan>
        <tspan x="132" y="20">#</tspan>
        <tspan x="132" y="40">+</tspan>
        <tspan x="132" y="60">9</tspan>
        <tspan x="132" y="80">-</tspan>
        <tspan x="132" y="100">{</tspan>
        <tspan x="132" y="120">0</tspan>
        <tspan x="132" y="140">Z</tspan>
        <tspan x="132" y="160">+</tspan>
        <tspan x="132" y="180">/</tspan>
        <tspan x="132" y="200">{</tspan>
        <tspan x="132" y="220">X</tspan>
      </text>
    </g>
    <g transform="translate(0, -20)">
      <text font-family="'JetBrains Mono', monospace" font-size="11" fill="#7aa2f7" xml:space="preserve">
        <tspan x="219" y="0">*</tspan>
        <tspan x="219" y="20">F</tspan>
        <tspan x="219" y="40">~</tspan>
        <tspan x="219" y="60">~</tspan>
        <tspan x="219" y="80">{</tspan>
        <tspan x="219" y="100">1</tspan>
        <tspan x="219" y="120">-</tspan>
        <tspan x="219" y="140">#</tspan>
      </text>
    </g>
    <g transform="translate(0, 1)">
      <text font-family="'JetBrains Mono', monospace" font-size="11" fill="#7aa2f7" xml:space="preserve">
        <tspan x="306" y="0">}</tspan>
        <tspan x="306" y="20">~</tspan>
        <tspan x="306" y="40">7</tspan>
        <tspan x="306" y="60">A</tspan>
        <tspan x="306" y="80">1</tspan>
        <tspan x="306" y="100">9</tspan>
        <tspan x="306" y="120">}</tspan>
        <tspan x="306" y="140">A</tspan>
        <tspan x="306" y="160">9</tspan>
        <tspan x="306" y="180">F</tspan>
        <tspan x="306" y="200">*</tspan>
        <tspan x="306" y="220">{</tspan>
      </text>
    </g>
    <g transform="translate(0, 136)">
      <text font-family="'JetBrains Mono', monospace" font-size="11" fill="#7aa2f7" xml:space="preserve">
        <tspan x="394" y="0">~</tspan>
        <tspan x="394" y="20">7</tspan>
        <tspan x="394" y="40">{</tspan>
        <tspan x="394" y="60">A</tspan>
        <tspan x="394" y="80">Z</tspan>
        <tspan x="394" y="100">#</tspan>
        <tspan x="394" y="120">9</tspan>
        <tspan x="394" y="140">Z</tspan>
        <tspan x="394" y="160">-</tspan>
        <tspan x="394" y="180">*</tspan>
      </text>
    </g>
    <g transform="translate(0, 124)">
      <text font-family="'JetBrains Mono', monospace" font-size="11" fill="#7aa2f7" xml:space="preserve">
        <tspan x="481" y="0">9</tspan>
        <tspan x="481" y="20">/</tspan>
        <tspan x="481" y="40">1</tspan>
        <tspan x="481" y="60">9</tspan>
        <tspan x="481" y="80">1</tspan>
        <tspan x="481" y="100">/</tspan>
        <tspan x="481" y="120">*</tspan>
        <tspan x="481" y="140">{</tspan>
        <tspan x="481" y="160">A</tspan>
        <tspan x="481" y="180">7</tspan>
        <tspan x="481" y="200">/</tspan>
        <tspan x="481" y="220">7</tspan>
      </text>
    </g>
    <g transform="translate(0, 86)">
      <text font-family="'JetBrains Mono', monospace" font-size="11" fill="#7aa2f7" xml:space="preserve">
        <tspan x="568" y="0">X</tspan>
        <tspan x="568" y="20">{</tspan>
        <tspan x="568" y="40">X</tspan>
        <tspan x="568" y="60">9</tspan>
        <tspan x="568" y="80">#</tspan>
        <tspan x="568" y="100">#</tspan>
        <tspan x="568" y="120">{</tspan>
        <tspan x="568" y="140">+</tspan>
        <tspan x="568" y="160">*</tspan>
        <tspan x="568" y="180">~</tspan>
        <tspan x="568" y="200">9</tspan>
      </text>
    </g>
    <g transform="translate(0, 24)">
      <text font-family="'JetBrains Mono', monospace" font-size="11" fill="#7aa2f7" xml:space="preserve">
        <tspan x="655" y="0">1</tspan>
        <tspan x="655" y="20">F</tspan>
        <tspan x="655" y="40">X</tspan>
        <tspan x="655" y="60">Z</tspan>
        <tspan x="655" y="80">+</tspan>
        <tspan x="655" y="100">A</tspan>
        <tspan x="655" y="120">*</tspan>
        <tspan x="655" y="140">*</tspan>
      </text>
    </g>
    <g transform="translate(0, 89)">
      <text font-family="'JetBrains Mono', monospace" font-size="11" fill="#7aa2f7" xml:space="preserve">
        <tspan x="743" y="0">0</tspan>
        <tspan x="743" y="20">F</tspan>
        <tspan x="743" y="40">#</tspan>
        <tspan x="743" y="60">{</tspan>
        <tspan x="743" y="80">/</tspan>
        <tspan x="743" y="100">F</tspan>
        <tspan x="743" y="120">}</tspan>
        <tspan x="743" y="140">+</tspan>
        <tspan x="743" y="160">Z</tspan>
        <tspan x="743" y="180">-</tspan>
        <tspan x="743" y="200">0</tspan>
        <tspan x="743" y="220">{</tspan>
      </text>
    </g>
    <g transform="translate(0, 85)">
      <text font-family="'JetBrains Mono', monospace" font-size="11" fill="#7aa2f7" xml:space="preserve">
        <tspan x="830" y="0">}</tspan>
        <tspan x="830" y="20">:</tspan>
        <tspan x="830" y="40">7</tspan>
        <tspan x="830" y="60">X</tspan>
        <tspan x="830" y="80">~</tspan>
        <tspan x="830" y="100">Z</tspan>
        <tspan x="830" y="120">#</tspan>
        <tspan x="830" y="140">:</tspan>
      </text>
    </g>
    <g transform="translate(0, 154)">
      <text font-family="'JetBrains Mono', monospace" font-size="11" fill="#7aa2f7" xml:space="preserve">
        <tspan x="917" y="0">F</tspan>
        <tspan x="917" y="20">~</tspan>
        <tspan x="917" y="40">}</tspan>
        <tspan x="917" y="60">9</tspan>
        <tspan x="917" y="80">1</tspan>
        <tspan x="917" y="100">9</tspan>
        <tspan x="917" y="120">A</tspan>
        <tspan x="917" y="140">A</tspan>
      </text>
    </g>
    <g transform="translate(0, 55)">
      <text font-family="'JetBrains Mono', monospace" font-size="11" fill="#7aa2f7" xml:space="preserve">
        <tspan x="1004" y="0">X</tspan>
        <tspan x="1004" y="20">X</tspan>
        <tspan x="1004" y="40">=</tspan>
        <tspan x="1004" y="60">#</tspan>
        <tspan x="1004" y="80">Z</tspan>
        <tspan x="1004" y="100">{</tspan>
        <tspan x="1004" y="120">:</tspan>
        <tspan x="1004" y="140">+</tspan>
        <tspan x="1004" y="160">7</tspan>
        <tspan x="1004" y="180">#</tspan>
        <tspan x="1004" y="200">7</tspan>
        <tspan x="1004" y="220">}</tspan>
      </text>
    </g>
    </g>
    <!-- Readability scrim -->
    <rect x="5" y="42" width="1040" height="472" fill="#090d16" fill-opacity="0.75"/>
  </g>

  <!-- Title Bar -->
  <path d="M 4 18 C 4 10.268 10.268 4 18 4 L 1032 4 C 1039.732 4 1046 10.268 1046 18 L 1046 42 L 4 42 Z" fill="#111624"/>
  <line x1="4" y1="42" x2="1046" y2="42" stroke="#232a3d" stroke-width="1"/>

  <!-- Traffic Light Window Buttons -->
  <circle cx="26" cy="23" r="6" fill="#f72585"/>
  <circle cx="46" cy="23" r="6" fill="#ffb703"/>
  <circle cx="66" cy="23" r="6" fill="#00f0ff"/>

  <!-- Title Text -->
  <g class="mono" font-size="12">
    <text x="525" y="27" text-anchor="middle" class="hdr-title">nyzeep@workbench: ~</text>
    <circle cx="985" cy="23" r="4.5" fill="#00f0ff">
      
    </circle>
    <text x="996" y="27" font-size="11" fill="#00f0ff" font-weight="700">ONLINE</text>
  </g>

  <!-- Terminal Body Canvas -->
  <g transform="translate(40, 72)" class="mono">

    <!-- Shell Execution Line -->
    <text y="0" font-size="14" xml:space="preserve">
      <tspan fill="#00f0ff" font-weight="700">nyzeep</tspan>
      <tspan fill="#565f89">@</tspan>
      <tspan fill="#b5179e" font-weight="600">workbench</tspan>
      <tspan fill="#565f89"> in </tspan>
      <tspan fill="#4361ee">~</tspan>
      <tspan fill="#00f0ff" font-weight="700"> ❯ </tspan>
      <tspan fill="#f0f6fc">fastfetch</tspan>
    </text>

    <!-- Visual Anchor: Dynamic Flowing Chromatic TUI Banner -->
    <g transform="translate(0, 16)">
      <text font-size="14" fill="url(#chroma-flow)" font-weight="900" filter="url(#chroma-glow)" xml:space="preserve">
        <tspan x="0" y="20">███╗   ██╗██╗   ██╗███████╗███████╗███████╗██████╗ </tspan>
        <tspan x="0" y="39">████╗  ██║╚██╗ ██╔╝╚══███╔╝██╔════╝██╔════╝██╔══██╗</tspan>
        <tspan x="0" y="58">██╔██╗ ██║ ╚████╔╝   ███╔╝ █████╗  █████╗  ██████╔╝</tspan>
        <tspan x="0" y="77">██║╚██╗██║  ╚██╔╝   ███╔╝  ██╔══╝  ██╔══╝  ██╔═══╝ </tspan>
        <tspan x="0" y="96">██║ ╚████║   ██║   ███████╗███████╗███████╗██║     </tspan>
        <tspan x="0" y="115">╚═╝  ╚═══╝   ╚═╝   ╚══════╝╚══════╝╚══════╝╚═╝     </tspan>
      </text>

      <!-- Clean Summary Tagline on the Right -->
      <g transform="translate(540, 24)">
        <rect width="430" height="84" rx="8" fill="url(#spec-box-bg)" stroke="#232a3d" stroke-width="1"/>
        <text x="18" y="32" font-size="12" fill="#7000ff" font-weight="700" letter-spacing="1">DEVELOPER TELEMETRY // HALO-CORE</text>
        <text x="18" y="54" font-size="12.5" fill="#8f9bb3">FOCUS :: <tspan fill="#f0f6fc">AI Agent Developer Tooling &amp; Verifiable DX</tspan></text>
        <text x="18" y="72" font-size="12" fill="#8f9bb3">MOTTO :: <tspan fill="#00f0ff">Make it useful, then make it delightful</tspan></text>
      </g>
    </g>

    <!-- Clean Divider Line -->
    <line x1="0" y1="152" x2="970" y2="152" stroke="#232a3d" stroke-width="1" stroke-dasharray="6 4"/>

    <!-- Concise, Uncluttered Specifications (Zero filler, perfectly organized) -->
    <g transform="translate(0, 172)">
      <!-- Left Column: Platform & Runtime (3 clean rows) -->
      <g transform="translate(0, 0)">
        <rect width="466" height="126" rx="8" fill="url(#spec-box-bg)" stroke="#232a3d" stroke-width="1"/>
        <rect width="466" height="26" rx="8" fill="#131929"/>
        <line x1="0" y1="26" x2="466" y2="26" stroke="#232a3d" stroke-width="1"/>
        <text x="16" y="18" fill="#00f0ff" font-size="11.5" font-weight="700" letter-spacing="1">01 // PLATFORM &amp; RUNTIME</text>

        <g transform="translate(16, 48)">
          <text y="0" xml:space="preserve">
            <tspan class="key">OS</tspan>
            <tspan class="sep"> ─────── </tspan>
            <tspan class="val">Arch Linux x86_64</tspan>
          </text>
          <text y="26" xml:space="preserve">
            <tspan class="key">Host</tspan>
            <tspan class="sep"> ───── </tspan>
            <tspan class="val">DeepSeek Harness Station</tspan>
          </text>
          <text y="52" xml:space="preserve">
            <tspan class="key">Shell</tspan>
            <tspan class="sep"> ──── </tspan>
            <tspan class="val">zsh 5.9 + starship</tspan>
          </text>
        </g>
      </g>

      <!-- Right Column: Stack & Active Projects (3 clean rows) -->
      <g transform="translate(504, 0)">
        <rect width="466" height="126" rx="8" fill="url(#spec-box-bg)" stroke="#232a3d" stroke-width="1"/>
        <rect width="466" height="26" rx="8" fill="#131929"/>
        <line x1="0" y1="26" x2="466" y2="26" stroke="#232a3d" stroke-width="1"/>
        <text x="16" y="18" fill="#f72585" font-size="11.5" font-weight="700" letter-spacing="1">02 // STACK &amp; PROJECTS</text>

        <g transform="translate(16, 48)">
          <text y="0" xml:space="preserve">
            <tspan class="key">Focus</tspan>
            <tspan class="sep"> ──── </tspan>
            <tspan class="val">AI Agent Tooling · Dev Experience</tspan>
          </text>
          <text y="26" xml:space="preserve">
            <tspan class="key">Stack</tspan>
            <tspan class="sep"> ──── </tspan>
            <tspan class="val">Rust · TypeScript · Python · Vue</tspan>
          </text>
          <text y="52" xml:space="preserve">
            <tspan class="key">Active</tspan>
            <tspan class="sep"> ─── </tspan>
            <tspan class="val-accent">Halo-Studio</tspan>
            <tspan class="sep"> · </tspan>
            <tspan class="val-purple">dsh-material-file-icons</tspan>
          </text>
        </g>
      </g>
    </g>

    <!-- Bottom Section: Color Palette & Realistic Shell Prompt Waiting for Input -->
    <g transform="translate(0, 326)">
      <!-- 8 Vibrant Chromatic Terminal Color Test Blocks -->
      <g transform="translate(0, 0)">
        <rect x="0" y="0" width="46" height="13" rx="3" fill="#141a2b" stroke="#232a3d" stroke-width="1"/>
        <rect x="54" y="0" width="46" height="13" rx="3" fill="#f72585"/>
        <rect x="108" y="0" width="46" height="13" rx="3" fill="#ffb703"/>
        <rect x="162" y="0" width="46" height="13" rx="3" fill="#00f0ff"/>
        <rect x="216" y="0" width="46" height="13" rx="3" fill="#4361ee"/>
        <rect x="270" y="0" width="46" height="13" rx="3" fill="#7000ff"/>
        <rect x="324" y="0" width="46" height="13" rx="3" fill="#b5179e"/>
        <rect x="378" y="0" width="46" height="13" rx="3" fill="#f0f6fc"/>
      </g>

      <!-- Clean Next Terminal Prompt Line Waiting for Input (NO childish fake commands) -->
      <g transform="translate(0, 34)">
        <text font-size="14" xml:space="preserve">
          <tspan fill="#00f0ff" font-weight="700">nyzeep</tspan>
          <tspan fill="#565f89">@</tspan>
          <tspan fill="#b5179e" font-weight="600">workbench</tspan>
          <tspan fill="#565f89"> in </tspan>
          <tspan fill="#4361ee">~</tspan>
          <tspan fill="#00f0ff" font-weight="700"> ❯ </tspan>
        </text>
        <rect x="156" y="-13" width="9" height="17" fill="#00f0ff">
          
        </rect>
      </g>
    </g>

  </g>
</svg>